<svg width="32" height="32" viewBox="0 0 32 32" fill="none" xmlns="http://www.w3.org/2000/svg">
<path d="M6.66634 1.33325H2.66634C2.31272 1.33325 1.97358 1.47373 1.72353 1.72378C1.47348 1.97382 1.33301 2.31296 1.33301 2.66659V29.3333C1.33301 29.6869 1.47348 30.026 1.72353 30.2761C1.97358 30.5261 2.31272 30.6666 2.66634 30.6666H6.66634V1.33325Z" fill="#D6B1FF"/>
<path d="M9.33301 30.6666H22.6663V1.33325H9.33301V30.6666ZM15.9997 25.3333C15.6461 25.3333 15.3069 25.1928 15.0569 24.9427C14.8068 24.6927 14.6663 24.3535 14.6663 23.9999C14.6663 23.6463 14.8068 23.3072 15.0569 23.0571C15.3069 22.8071 15.6461 22.6666 15.9997 22.6666C16.3533 22.6666 16.6924 22.8071 16.9425 23.0571C17.1925 23.3072 17.333 23.6463 17.333 23.9999C17.333 24.3535 17.1925 24.6927 16.9425 24.9427C16.6924 25.1928 16.3533 25.3333 15.9997 25.3333ZM15.9997 6.66658C16.3533 6.66658 16.6924 6.80706 16.9425 7.05711C17.1925 7.30716 17.333 7.6463 17.333 7.99992C17.333 8.35354 17.1925 8.69268 16.9425 8.94273C16.6924 9.19278 16.3533 9.33325 15.9997 9.33325C15.6461 9.33325 15.3069 9.19278 15.0569 8.94273C14.8068 8.69268 14.6663 8.35354 14.6663 7.99992C14.6663 7.6463 14.8068 7.30716 15.0569 7.05711C15.3069 6.80706 15.6461 6.66658 15.9997 6.66658ZM15.9997 14.6666C16.3533 14.6666 16.6924 14.8071 16.9425 15.0571C17.1925 15.3072 17.333 15.6463 17.333 15.9999C17.333 16.3535 17.1925 16.6927 16.9425 16.9427C16.6924 17.1928 16.3533 17.3333 15.9997 17.3333C15.6461 17.3333 15.3069 17.1928 15.0569 16.9427C14.8068 16.6927 14.6663 16.3535 14.6663 15.9999C14.6663 15.6463 14.8068 15.3072 15.0569 15.0571C15.3069 14.8071 15.6461 14.6666 15.9997 14.6666Z" fill="#8C30F5"/>
<path d="M29.333 1.33325H25.333V30.6666H29.333C29.6866 30.6666 30.0258 30.5261 30.2758 30.2761C30.5259 30.026 30.6663 29.6869 30.6663 29.3333V2.66659C30.6663 2.31296 30.5259 1.97382 30.2758 1.72378C30.0258 1.47373 29.6866 1.33325 29.333 1.33325Z" fill="#2EC5CE"/>
</svg>
