<svg width="30" height="30" viewBox="0 0 30 30" fill="none" xmlns="http://www.w3.org/2000/svg">
<path d="M29.6663 6.99992V1.66659C29.6663 1.31296 29.5259 0.973824 29.2758 0.723775C29.0258 0.473727 28.6866 0.333252 28.333 0.333252H1.66634C1.31272 0.333252 0.97358 0.473727 0.723531 0.723775C0.473483 0.973824 0.333008 1.31296 0.333008 1.66659V6.99992H29.6663Z" fill="#2EC5CE"/>
<path d="M0.333008 9.6665V28.3332C0.333008 28.6868 0.473483 29.0259 0.723531 29.276C0.97358 29.526 1.31272 29.6665 1.66634 29.6665H8.33301V9.6665H0.333008Z" fill="#D6B1FF"/>
<path d="M11 29.6665H28.3333C28.687 29.6665 29.0261 29.526 29.2761 29.276C29.5262 29.0259 29.6667 28.6868 29.6667 28.3332V9.6665H11V29.6665Z" fill="#8C30F5"/>
</svg>
